<?xml version="1.0" standalone="no"?>
<!DOCTYPE svg PUBLIC "-//W3C//DTD SVG 20010904//EN"
 "http://www.w3.org/TR/2001/REC-SVG-20010904/DTD/svg10.dtd">
<svg version="1.0" xmlns="http://www.w3.org/2000/svg"
 width="700.000000pt" height="700.000000pt" viewBox="0 0 700.000000 700.000000"
 preserveAspectRatio="xMidYMid meet">
<metadata>
Created by potrace 1.11, written by Peter Selinger 2001-2013
</metadata>
<g transform="translate(0.000000,700.000000) scale(0.100000,-0.100000)"
fill="#000000" stroke="none">
<path d="M3597 5544 c-1 -1 -281 -4 -622 -8 -715 -8 -851 -11 -1240 -31 -280
-14 -382 -25 -481 -50 -148 -38 -267 -107 -370 -218 -131 -140 -223 -406 -249
-722 -3 -38 -8 -83 -10 -100 -2 -16 -7 -66 -10 -110 -3 -44 -8 -102 -10 -130
-25 -307 -26 -1079 -1 -1390 3 -27 7 -88 11 -135 4 -47 8 -98 10 -115 2 -16 6
-57 10 -90 3 -33 8 -78 10 -100 23 -204 102 -444 187 -569 67 -100 218 -206
353 -249 52 -17 71 -21 170 -38 33 -5 71 -12 85 -14 326 -55 2106 -76 3380
-40 260 7 601 25 775 41 203 18 359 82 491 204 55 51 99 106 131 165 66 122
136 364 148 511 4 44 8 90 10 103 2 13 7 65 11 115 3 50 8 107 10 126 24 232
24 1238 0 1500 -3 25 -7 79 -11 120 -7 92 -11 131 -30 320 -18 168 -109 433
-186 541 -30 43 -129 136 -182 171 -94 64 -212 107 -337 123 -30 4 -62 9 -70
10 -8 2 -71 6 -139 10 -68 3 -151 8 -185 10 -208 13 -503 22 -1061 30 -253 4
-491 8 -528 9 -38 0 -69 0 -70 0z m-437 -1356 c25 -14 74 -42 110 -63 36 -21
88 -50 115 -65 28 -15 100 -55 160 -90 116 -66 508 -289 585 -332 25 -14 97
-55 160 -90 63 -36 130 -74 147 -85 l33 -20 -73 -37 c-66 -35 -144 -76 -412
-216 -55 -29 -152 -80 -215 -112 -63 -33 -151 -79 -195 -103 -105 -55 -257
-135 -430 -225 -77 -40 -159 -84 -183 -96 -23 -13 -45 -24 -47 -24 -3 0 -5
382 -5 850 l0 849 103 -58 c56 -32 122 -69 147 -83z"/>
</g>
</svg>
