<?xml version="1.0" standalone="no"?>
<!DOCTYPE svg PUBLIC "-//W3C//DTD SVG 20010904//EN"
 "http://www.w3.org/TR/2001/REC-SVG-20010904/DTD/svg10.dtd">
<svg version="1.0" xmlns="http://www.w3.org/2000/svg"
 width="558.000000pt" height="558.000000pt" viewBox="0 0 558.000000 558.000000"
 preserveAspectRatio="xMidYMid meet">
<metadata>
Created by potrace 1.11, written by Peter Selinger 2001-2013
</metadata>
<g transform="translate(0.000000,558.000000) scale(0.100000,-0.100000)"
fill="#000000" stroke="none">
<path d="M2279 3756 c-2 -2 -62 -7 -134 -10 -152 -7 -188 -12 -235 -34 -85
-39 -126 -89 -158 -193 -55 -177 -61 -750 -12 -1000 13 -66 52 -149 86 -183
32 -32 94 -62 151 -72 21 -4 47 -8 58 -10 127 -24 1288 -23 1510 1 171 18 265
108 291 279 3 21 8 48 10 60 27 135 20 718 -11 868 -41 198 -125 266 -350 284
-78 6 -1201 15 -1206 10z m406 -511 c39 -21 99 -56 134 -77 34 -21 65 -38 66
-38 2 0 31 -16 63 -35 33 -19 88 -50 122 -68 34 -19 61 -38 60 -43 -2 -5 -55
-36 -119 -70 -64 -33 -190 -99 -281 -147 l-165 -86 2 307 c1 169 2 311 2 316
1 4 11 2 24 -6 12 -8 54 -32 92 -53z"/>
</g>
</svg>
